<?xml version="1.0" standalone="no"?>
<!DOCTYPE svg PUBLIC "-//W3C//DTD SVG 20010904//EN"
 "http://www.w3.org/TR/2001/REC-SVG-20010904/DTD/svg10.dtd">
<svg version="1.0" xmlns="http://www.w3.org/2000/svg"
 width="299.000000pt" height="299.000000pt" viewBox="0 0 299.000000 299.000000"
 preserveAspectRatio="xMidYMid meet">
<metadata>
Created by potrace 1.11, written by Peter Selinger 2001-2013
</metadata>
<g transform="translate(0.000000,299.000000) scale(0.100000,-0.100000)"
fill="#000000" stroke="none">
<path d="M1242 1508 l3 -793 152 -1 c106 -1 153 2 155 10 2 6 4 233 4 503 l-1
493 93 -93 c52 -50 178 -176 281 -279 l187 -186 279 279 280 279 5 -503 5
-502 153 -2 152 -1 0 794 0 794 -86 0 -87 0 -344 -342 c-189 -189 -349 -344
-356 -345 -7 -2 -167 153 -357 342 l-345 345 -88 0 -87 0 2 -792z"/>
<path d="M329 2277 c-63 -18 -132 -60 -169 -104 -31 -38 -96 -160 -89 -167 2
-2 51 -22 109 -46 58 -23 110 -44 115 -46 6 -2 19 11 29 30 48 90 189 83 235
-10 18 -36 16 -125 -4 -167 -23 -49 -50 -61 -145 -67 l-85 -5 0 -137 0 -138
80 0 c85 -1 143 -16 177 -47 33 -29 60 -102 63 -168 5 -114 -39 -184 -127
-206 -97 -23 -204 14 -248 86 -12 19 -26 35 -32 35 -16 0 -228 -154 -228 -166
0 -18 53 -86 100 -128 178 -160 559 -150 713 18 70 76 101 182 101 346 0 101
-9 144 -44 216 -32 65 -79 118 -142 161 l-37 25 30 25 c67 56 102 154 101 277
-3 265 -123 391 -377 394 -44 1 -101 -5 -126 -11z"/>
<path d="M1060 1497 c0 -699 2 -794 15 -794 11 0 15 12 16 46 0 55 0 1523 0
1534 -1 4 -8 7 -16 7 -13 0 -15 -95 -15 -793z"/>
</g>
</svg>
